<svg xmlns="http://www.w3.org/2000/svg" xmlns:xlink="http://www.w3.org/1999/xlink" fill="none" version="1.1" width="15" height="15" viewBox="0 0 15 15"><g style="mix-blend-mode:passthrough"><path d="M0,2.70833C-3.70074e-16,1.99004,0.285341,1.30116,0.793252,0.793252C1.30116,0.285341,1.99004,7.40149e-16,2.70833,0C2.70833,0,12.2917,0,12.2917,0C13.01,0,13.6988,0.285341,14.2067,0.793252C14.7147,1.30116,15,1.99004,15,2.70833C15,2.70833,15,12.2917,15,12.2917C15,13.01,14.7147,13.6988,14.2067,14.2067C13.6988,14.7147,13.01,15,12.2917,15C12.2917,15,2.70833,15,2.70833,15C1.99004,15,1.30116,14.7147,0.793252,14.2067C0.285341,13.6988,3.70074e-16,13.01,0,12.2917C0,12.2917,0,2.70833,0,2.70833C0,2.70833,0,2.70833,0,2.70833ZM8.125,3.95833C8.125,3.79257,8.05915,3.6336,7.94194,3.51639C7.82473,3.39918,7.66576,3.33333,7.5,3.33333C7.33424,3.33333,7.17527,3.39918,7.05806,3.51639C6.94085,3.6336,6.875,3.79257,6.875,3.95833C6.875,3.95833,6.875,6.875,6.875,6.875C6.875,6.875,3.95833,6.875,3.95833,6.875C3.79257,6.875,3.6336,6.94085,3.51639,7.05806C3.39918,7.17527,3.33333,7.33424,3.33333,7.5C3.33333,7.66576,3.39918,7.82473,3.51639,7.94194C3.6336,8.05915,3.79257,8.125,3.95833,8.125C3.95833,8.125,6.875,8.125,6.875,8.125C6.875,8.125,6.875,11.0417,6.875,11.0417C6.875,11.2074,6.94085,11.3664,7.05806,11.4836C7.17527,11.6008,7.33424,11.6667,7.5,11.6667C7.66576,11.6667,7.82473,11.6008,7.94194,11.4836C8.05915,11.3664,8.125,11.2074,8.125,11.0417C8.125,11.0417,8.125,8.125,8.125,8.125C8.125,8.125,11.0417,8.125,11.0417,8.125C11.2074,8.125,11.3664,8.05915,11.4836,7.94194C11.6008,7.82473,11.6667,7.66576,11.6667,7.5C11.6667,7.33424,11.6008,7.17527,11.4836,7.05806C11.3664,6.94085,11.2074,6.875,11.0417,6.875C11.0417,6.875,8.125,6.875,8.125,6.875C8.125,6.875,8.125,3.95833,8.125,3.95833C8.125,3.95833,8.125,3.95833,8.125,3.95833Z" fill="#666666" fill-opacity="1"/></g></svg>