<svg xmlns="http://www.w3.org/2000/svg" xmlns:xlink="http://www.w3.org/1999/xlink" fill="none" version="1.1" width="20" height="12.5" viewBox="0 0 20 12.5"><g style="mix-blend-mode:passthrough"><path d="M0,2.5C1.21431e-16,1.83696,0.263392,1.20107,0.732233,0.732233C1.20107,0.263392,1.83696,1.7314e-8,2.5,1.7314e-8C2.5,1.7314e-8,11.875,1.7314e-8,11.875,1.7314e-8C12.4814,-0.00007131,13.0671,0.220241,13.5231,0.61991C13.9791,1.01958,14.2743,1.57136,14.3538,2.1725C14.3538,2.1725,18.2413,0.445,18.2413,0.445C18.4315,0.360214,18.64,0.32433,18.8477,0.340607C19.0554,0.356884,19.2557,0.424808,19.4304,0.538203C19.6052,0.651599,19.7488,0.80687,19.8483,0.989905C19.9478,1.17294,19.9999,1.37793,20,1.58625C20,1.58625,20,10.9137,20,10.9137C19.9998,11.1219,19.9477,11.3267,19.8483,11.5096C19.7488,11.6925,19.6053,11.8477,19.4308,11.961C19.2562,12.0744,19.0561,12.1424,18.8486,12.1588C18.641,12.1752,18.4327,12.1395,18.2425,12.055C18.2425,12.055,14.3538,10.3275,14.3538,10.3275C14.2743,10.9286,13.9791,11.4804,13.5231,11.8801C13.0671,12.2798,12.4814,12.5001,11.875,12.5C11.875,12.5,2.5,12.5,2.5,12.5C1.83696,12.5,1.20107,12.2366,0.732233,11.7678C0.263392,11.2989,3.64292e-16,10.663,0,10C0,10,0,2.5,0,2.5C0,2.5,0,2.5,0,2.5ZM14.375,8.96875C14.375,8.96875,18.75,10.9137,18.75,10.9137C18.75,10.9137,18.75,1.58625,18.75,1.58625C18.75,1.58625,14.375,3.53125,14.375,3.53125C14.375,3.53125,14.375,8.96875,14.375,8.96875C14.375,8.96875,14.375,8.96875,14.375,8.96875ZM2.5,1.25C2.16848,1.25,1.85054,1.3817,1.61612,1.61612C1.3817,1.85054,1.25,2.16848,1.25,2.5C1.25,2.5,1.25,10,1.25,10C1.25,10.3315,1.3817,10.6495,1.61612,10.8839C1.85054,11.1183,2.16848,11.25,2.5,11.25C2.5,11.25,11.875,11.25,11.875,11.25C12.2065,11.25,12.5245,11.1183,12.7589,10.8839C12.9933,10.6495,13.125,10.3315,13.125,10C13.125,10,13.125,2.5,13.125,2.5C13.125,2.16848,12.9933,1.85054,12.7589,1.61612C12.5245,1.3817,12.2065,1.25,11.875,1.25C11.875,1.25,2.5,1.25,2.5,1.25C2.5,1.25,2.5,1.25,2.5,1.25Z" fill-rule="evenodd" fill="#333333" fill-opacity="1"/></g></svg>