<svg xmlns="http://www.w3.org/2000/svg" xmlns:xlink="http://www.w3.org/1999/xlink" fill="none" version="1.1" width="22" height="22" viewBox="0 0 22 22"><defs><clipPath id="master_svg0_0_25"><rect x="0" y="0" width="22" height="22" rx="0"/></clipPath></defs><g style="mix-blend-mode:passthrough" clip-path="url(#master_svg0_0_25)"><g style="mix-blend-mode:passthrough"><g style="mix-blend-mode:passthrough"><path d="M12.711600109863282,5.123249942398071C12.711670109863281,5.3480899423980715,12.667460109863281,5.570749942398072,12.581480109863282,5.778499942398071C12.495500109863281,5.986259942398071,12.369450109863282,6.175049942398071,12.210510109863282,6.334079942398072C12.051570109863281,6.493119942398071,11.86287010986328,6.619299942398071,11.655170109863281,6.705409942398071C11.447470109863282,6.791519942398072,11.224840109863282,6.835879942398071,11.000000109863281,6.835949942398072C10.77516010986328,6.836019942398071,10.552500109863281,6.791809942398071,10.34475010986328,6.705829942398071C10.13699210986328,6.619849942398071,9.94820510986328,6.493799942398072,9.789166109863281,6.334859942398071C9.630127109863281,6.175929942398071,9.503951109863282,5.987219942398071,9.41784110986328,5.779519942398071C9.33173050986328,5.571819942398071,9.287372420563281,5.3491899423980716,9.28730019831868,5.124349942398071C9.287154338863282,4.670259942398071,9.467401109863282,4.234709942398071,9.788389109863282,3.9135159423980714C10.10937610986328,3.5923229423980714,10.544810109863281,3.4117959003980713,10.998900109863282,3.411650030865671C11.452990109863281,3.4115041613980712,11.888540109863282,3.5917509423980714,12.209730109863282,3.9127379423980715C12.53093010986328,4.233725942398071,12.711450109863282,4.669159942398071,12.711600109863282,5.123249942398071C12.711600109863282,5.123249942398071,12.711600109863282,5.123249942398071,12.711600109863282,5.123249942398071C12.711600109863282,5.123249942398071,12.711600109863282,5.123249942398071,12.711600109863282,5.123249942398071Z" fill="#FFFFFF" fill-opacity="1"/></g><g style="mix-blend-mode:passthrough"><path d="M11.000000650024415,12.71104966468811C11.945290650024415,12.71104966468811,12.711600650024414,11.944739664688111,12.711600650024414,10.999449664688111C12.711600650024414,10.054159664688111,11.945290650024415,9.28784966468811,11.000000650024415,9.28784966468811C10.054709650024414,9.28784966468811,9.288400650024414,10.054159664688111,9.288400650024414,10.999449664688111C9.288400650024414,11.944739664688111,10.054709650024414,12.71104966468811,11.000000650024415,12.71104966468811C11.000000650024415,12.71104966468811,11.000000650024415,12.71104966468811,11.000000650024415,12.71104966468811Z" fill="#FFFFFF" fill-opacity="1"/></g><g style="mix-blend-mode:passthrough"><path d="M11.000000650024415,18.588349927139284C11.945290650024415,18.588349927139284,12.711600650024414,17.822039927139283,12.711600650024414,16.876749927139283C12.711600650024414,15.931459927139283,11.945290650024415,15.165149927139282,11.000000650024415,15.165149927139282C10.054709650024414,15.165149927139282,9.288400650024414,15.931459927139283,9.288400650024414,16.876749927139283C9.288400650024414,17.822039927139283,10.054709650024414,18.588349927139284,11.000000650024415,18.588349927139284C11.000000650024415,18.588349927139284,11.000000650024415,18.588349927139284,11.000000650024415,18.588349927139284Z" fill="#FFFFFF" fill-opacity="1"/></g></g></g></svg>