<svg xmlns="http://www.w3.org/2000/svg" xmlns:xlink="http://www.w3.org/1999/xlink" fill="none" version="1.1" width="10" height="16" viewBox="0 0 10 16"><g style="mix-blend-mode:passthrough"><path d="M5,1C5.53043,1,6.03914,1.21071,6.41421,1.58579C6.78929,1.96086,7,2.46957,7,3C7,3,7,7,7,7C7,7,3,7,3,7C3,7,3,3,3,3C3,2.46957,3.21071,1.96086,3.58579,1.58579C3.96086,1.21071,4.46957,1,5,1C5,1,5,1,5,1C5,1,5,1,5,1ZM8,7C8,7,8,3,8,3C8,2.20435,7.68393,1.44129,7.12132,0.87868C6.55871,0.31607,5.79565,4.71845e-16,5,0C4.20435,5.55112e-16,3.44129,0.31607,2.87868,0.87868C2.31607,1.44129,2,2.20435,2,3C2,3,2,7,2,7C1.46957,7,0.960859,7.21071,0.585786,7.58579C0.210714,7.96086,4.44089e-16,8.46957,0,9C0,9,0,14,0,14C4.44089e-16,14.5304,0.210714,15.0391,0.585786,15.4142C0.960859,15.7893,1.46957,16,2,16C2,16,8,16,8,16C8.53043,16,9.03914,15.7893,9.41421,15.4142C9.78929,15.0391,10,14.5304,10,14C10,14,10,9,10,9C10,8.46957,9.78929,7.96086,9.41421,7.58579C9.03914,7.21071,8.53043,7,8,7C8,7,8,7,8,7C8,7,8,7,8,7Z" fill="#666666" fill-opacity="1"/></g></svg>