<svg xmlns="http://www.w3.org/2000/svg" xmlns:xlink="http://www.w3.org/1999/xlink" fill="none" version="1.1" width="20" height="20" viewBox="0 0 20 20"><defs><clipPath id="master_svg0_0_2382"><rect x="0" y="0" width="20" height="20" rx="0"/></clipPath></defs><g style="mix-blend-mode:passthrough" clip-path="url(#master_svg0_0_2382)"><g style="mix-blend-mode:passthrough"><path d="M7.5,10C8.49456,10,9.44839,9.60491,10.1517,8.90165C10.8549,8.19839,11.25,7.24456,11.25,6.25C11.25,5.25544,10.8549,4.30161,10.1517,3.59835C9.44839,2.895088,8.49456,2.5000000000000004,7.5,2.5C6.50544,2.500000000000001,5.55161,2.895088,4.84835,3.59835C4.14509,4.30161,3.75,5.25544,3.75,6.25C3.75,7.24456,4.14509,8.19839,4.84835,8.90165C5.55161,9.60491,6.50544,10,7.5,10C7.5,10,7.5,10,7.5,10C7.5,10,7.5,10,7.5,10ZM10,6.25C10,6.91304,9.73661,7.54893,9.26777,8.017769999999999C8.79893,8.486609999999999,8.16304,8.75,7.5,8.75C6.83696,8.75,6.20107,8.486609999999999,5.73223,8.017769999999999C5.26339,7.54893,5,6.91304,5,6.25C5,5.5869599999999995,5.26339,4.95107,5.73223,4.4822299999999995C6.20107,4.01339,6.83696,3.75,7.5,3.75C8.16304,3.75,8.79893,4.01339,9.26777,4.4822299999999995C9.73661,4.95107,10,5.5869599999999995,10,6.25C10,6.25,10,6.25,10,6.25C10,6.25,10,6.25,10,6.25ZM15,16.25C15,17.5,13.75,17.5,13.75,17.5C13.75,17.5,1.25,17.5,1.25,17.5C1.25,17.5,0,17.5,0,16.25C0,15,1.25,11.25,7.5,11.25C13.75,11.25,15,15,15,16.25C15,16.25,15,16.25,15,16.25ZM13.75,16.244999999999997C13.7487,15.9375,13.5575,15.0125,12.71,14.165C11.895,13.35,10.3612,12.5,7.5,12.5C4.6375,12.5,3.105,13.35,2.29,14.165C1.4425,15.0125,1.2525,15.9375,1.25,16.244999999999997C1.25,16.244999999999997,13.75,16.244999999999997,13.75,16.244999999999997C13.75,16.244999999999997,13.75,16.244999999999997,13.75,16.244999999999997Z" fill="#333333" fill-opacity="1"/></g><g style="mix-blend-mode:passthrough"><path d="M16.875,6.25C17.04076,6.25,17.19973,6.3158481,17.31694,6.433058C17.43415,6.550269,17.5,6.70924,17.5,6.875C17.5,6.875,17.5,8.75,17.5,8.75C17.5,8.75,19.375,8.75,19.375,8.75C19.54076,8.75,19.69973,8.815850000000001,19.81694,8.93306C19.93415,9.05027,20,9.20924,20,9.375C20,9.54076,19.93415,9.69973,19.81694,9.81694C19.69973,9.934149999999999,19.54076,10,19.375,10C19.375,10,17.5,10,17.5,10C17.5,10,17.5,11.875,17.5,11.875C17.5,12.040759999999999,17.43415,12.199729999999999,17.31694,12.316939999999999C17.19973,12.434149999999999,17.04076,12.5,16.875,12.5C16.70924,12.5,16.55027,12.434149999999999,16.43306,12.316939999999999C16.31585,12.199729999999999,16.25,12.040759999999999,16.25,11.875C16.25,11.875,16.25,10,16.25,10C16.25,10,14.375,10,14.375,10C14.20924,10,14.050267999999999,9.934149999999999,13.933058,9.81694C13.8158476,9.69973,13.75,9.54076,13.75,9.375C13.75,9.20924,13.8158476,9.05027,13.933058,8.93306C14.050267999999999,8.815850000000001,14.20924,8.75,14.375,8.75C14.375,8.75,16.25,8.75,16.25,8.75C16.25,8.75,16.25,6.875,16.25,6.875C16.25,6.70924,16.31585,6.550269,16.43306,6.433058C16.55027,6.3158481,16.70924,6.25,16.875,6.25C16.875,6.25,16.875,6.25,16.875,6.25Z" fill-rule="evenodd" fill="#333333" fill-opacity="1"/></g></g></svg>